<?xml version="1.0" encoding="UTF-8" standalone="no"?>
<svg width="100px" height="100px" viewBox="0 0 100 100" version="1.1" xmlns="http://www.w3.org/2000/svg" xmlns:xlink="http://www.w3.org/1999/xlink">
    <!-- Generator: Sketch 49 (51002) - http://www.bohemiancoding.com/sketch -->
    <title>clear_sky</title>
    <desc>Created with Sketch.</desc>
    <defs></defs>
    <g id="Page-1" stroke="none" stroke-width="1" fill="none" fill-rule="evenodd">
        <g id="icons" transform="translate(-548.000000, -344.000000)" fill="#434343">
            <g id="clear_sky" transform="translate(548.000000, 344.000000)">
                <path d="M95.359,53.992 L87.1168,53.992 C84.8356,53.992 82.9918,52.1326 82.9918,49.8397 C82.9918,47.5467 84.8356,45.6874 87.1168,45.6874 L95.359,45.6874 C97.6363,45.6874 99.484,47.5468 99.484,49.8397 C99.484,52.1327 97.6402,53.992 95.359,53.992 Z" id="Fill-1"></path>
                <path d="M79.164,26.348 C77.5507,27.9691 74.9374,27.9691 73.332,26.348 C71.7187,24.7269 71.7187,22.0941 73.332,20.473 L79.164,14.598 C80.7695,12.9769 83.3828,12.9769 84.996,14.598 C86.6015,16.223 86.6015,18.8519 84.996,20.473 L79.164,26.348 Z" id="Fill-2"></path>
                <path d="M25.258,49.84 C25.258,63.602 36.336,74.758 50,74.758 C63.668,74.758 74.742,63.602 74.742,49.84 C74.742,36.078 63.668,24.918 50,24.918 C36.336,24.918 25.258,36.078 25.258,49.84 Z" id="Fill-3"></path>
                <path d="M50,16.613 C47.7227,16.613 45.8789,14.7536 45.8789,12.4607 L45.8789,4.1521 C45.8789,1.8591 47.7227,-0.0002 50,-0.0002 C52.2812,-0.0002 54.125,1.8592 54.125,4.1521 L54.125,12.4607 C54.125,14.7537 52.2734,16.613 50,16.613 Z" id="Fill-4"></path>
                <path d="M20.84,26.348 L15.0119,20.473 C13.3986,18.8519 13.3986,16.223 15.0119,14.598 C16.6213,12.9769 19.2307,12.9769 20.84,14.598 L26.672,20.473 C28.2814,22.0941 28.2814,24.7269 26.672,26.348 C25.0626,27.9691 22.4532,27.9691 20.84,26.348 Z" id="Fill-5"></path>
                <path d="M17.012,49.84 C17.012,52.133 15.1643,53.9923 12.887,53.9923 L4.636999,53.9923 C2.359699,53.9923 0.5158992,52.1329 0.5158992,49.84 C0.5158992,47.547 2.363599,45.6877 4.636999,45.6877 L12.887,45.6877 C15.1643,45.6877 17.012,47.5471 17.012,49.84 Z" id="Fill-6"></path>
                <path d="M20.84,73.336 C22.4533,71.7149 25.0627,71.7149 26.672,73.336 C28.2814,74.9571 28.2814,77.586 26.672,79.211 L20.84,85.0821 C19.2306,86.7032 16.6212,86.7032 15.0119,85.0821 C13.3986,83.461 13.3986,80.8321 15.0119,79.211 L20.84,73.336 Z" id="Fill-7"></path>
                <path d="M50,83.066 C52.2812,83.066 54.125,84.9254 54.125,87.2183 L54.125,95.526902 C54.125,97.819902 52.2812,99.6792021 50,99.6792021 C47.7227,99.6792021 45.8789,97.819802 45.8789,95.526902 L45.8789,87.2183 C45.8789,84.9253 47.7227,83.066 50,83.066 Z" id="Fill-8"></path>
                <path d="M79.164,73.336 L84.996,79.211 C86.6015,80.8321 86.6015,83.461 84.996,85.0821 C83.3827,86.7032 80.7694,86.7032 79.164,85.0821 L73.332,79.211 C71.7187,77.586 71.7187,74.9571 73.332,73.336 C74.9375,71.711 77.5468,71.711 79.164,73.336 Z" id="Fill-9"></path>
            </g>
        </g>
    </g>
</svg>