<?xml version="1.0" encoding="UTF-8" standalone="no"?>
<svg width="98px" height="60px" viewBox="0 0 98 60" version="1.1" xmlns="http://www.w3.org/2000/svg" xmlns:xlink="http://www.w3.org/1999/xlink">
    <!-- Generator: Sketch 49 (51002) - http://www.bohemiancoding.com/sketch -->
    <title>clouds</title>
    <desc>Created with Sketch.</desc>
    <defs></defs>
    <g id="Page-1" stroke="none" stroke-width="1" fill="none" fill-rule="evenodd">
        <g id="icons" transform="translate(-22.000000, -364.000000)" fill="#434343">
            <g id="clouds" transform="translate(22.000000, 364.000000)">
                <path d="M0.8008,44.602 L0.8008,42.3012 C0.90236,42.00042 0.90236,41.60198 1.00002,41.3012 C2.19922,35.0004 5.60162,30.5002 11.69902,28.3012 C12.19902,28.10198 12.80062,27.90276 13.30062,27.8012 C10.69902,22.8012 11.19902,18.1996 15.10142,14.1022 C19.80062,10.2038 24.60142,10.3014 29.60142,13.6022 C29.80064,13.1022 29.99986,12.6022 30.30064,12.2038 C33.30064,6.3054 38.80064,2.1018 45.30064,0.7038 C46.19908,0.50458 47.19904,0.40302 48.10144,0.30536 L50.80064,0.30536 C51.19908,0.40692 51.60142,0.40692 52.10144,0.50458 C57.10144,1.00458 61.70304,3.30538 65.10144,6.90298 C68.70304,10.50458 70.90224,15.40298 71.20304,20.50498 C71.20304,20.80576 71.10148,21.00498 70.8046,21.10654 C68.0038,22.30574 65.6054,24.20814 63.8046,26.60654 C63.70304,26.80576 63.40616,26.90732 63.20304,26.80576 C57.80464,25.40736 52.30504,28.60656 50.90204,33.90736 C50.60126,35.20816 50.5036,36.50896 50.60126,37.80576 C50.70282,38.00498 50.4997,38.30576 50.30048,38.40732 C46.49968,40.70812 43.99968,44.70812 43.90208,49.20832 C43.6013,53.10672 45.10128,56.90752 47.90208,59.50932 C48.00364,59.61088 48.1013,59.70854 48.30052,59.8101 L47.90208,59.8101 L16.90208,59.8101 C15.70288,59.8101 14.60128,59.70854 13.40208,59.41166 C7.402081,58.01326 2.703081,53.41166 1.300081,47.41166 C1.100861,46.5015 0.897741,45.60306 0.800081,44.60306 L0.8008,44.602 Z" id="Fill-1"></path>
                <path d="M55,40.102 C53.1992,37.2036 53.8008,33.5004 56.3984,31.3012 C58.8984,29.3012 62.3984,29.4028 64.8984,31.40276 C65.09762,30.90276 65.3984,30.40276 65.59762,30.00436 C67.59762,26.30516 71.29682,23.80516 75.39842,23.30516 C82.29682,22.30516 88.69942,26.80516 90.19942,33.60616 C90.39864,34.70776 90.5002,35.90696 90.39864,37.10616 C90.39864,37.40694 90.59786,37.70772 90.89864,37.90694 C96.59784,40.80534 98.79704,47.80534 95.89864,53.50894 C95.19942,54.90734 94.19944,56.11054 93.09784,57.11054 C90.99624,58.91134 88.39864,59.91134 85.59784,59.91134 L57.39884,59.91134 C51.89884,60.0129 47.39884,55.61054 47.29684,50.11054 C47.19528,45.71214 50.09764,41.71214 54.39844,40.41134 C54.60156,40.2004 54.80078,40.10275 55,40.10275 L55,40.102 Z" id="Fill-2"></path>
            </g>
        </g>
    </g>
</svg>