<?xml version="1.0" encoding="UTF-8" standalone="no"?>
<svg width="88px" height="87px" viewBox="0 0 88 87" version="1.1" xmlns="http://www.w3.org/2000/svg" xmlns:xlink="http://www.w3.org/1999/xlink">
    <!-- Generator: Sketch 49 (51002) - http://www.bohemiancoding.com/sketch -->
    <title>mist</title>
    <desc>Created with Sketch.</desc>
    <defs></defs>
    <g id="Page-1" stroke="none" stroke-width="1" fill="none" fill-rule="evenodd">
        <g id="icons" transform="translate(-209.000000, -350.000000)" fill="#434343">
            <g id="mist" transform="translate(209.000000, 350.000000)">
                <path d="M40.867,0.8125 C36.9568,0.8125 33.3123,1.9805 30.191,3.9297 L37.6754,3.9297 C38.9879,3.89845 40.3863,4.50001 41.234,5.4453 C42.08166,6.38671 42.4293,7.5273 42.4293,8.6211 C42.4293,9.7149 42.08164,10.8516 41.234,11.793 C40.38634,12.73441 38.9879,13.3399 37.6754,13.3086 L22.2304,13.3086 C22.00384,13.84376 21.74993,14.3555 21.57024,14.9141 C21.74993,14.91019 21.92962,14.88285 22.11321,14.88285 C30.49601,14.88285 38.00021,19.52345 42.16021,26.65585 C43.54301,26.31601 44.89851,25.82382 46.32821,25.81991 C55.42201,25.81991 62.96921,32.65971 64.12921,41.44491 L65.08233,41.44491 C73.28153,41.44491 79.92633,34.80041 79.92633,26.60091 C79.92633,18.40171 73.28183,11.75691 65.08233,11.75691 C63.13703,11.76082 61.20733,12.14363 59.41043,12.89361 C56.15653,5.55771 48.88743,0.82761 40.85943,0.81961 L40.867,0.8125 Z" id="Fill-1"></path>
                <path d="M22.117,18 C16.7264,18 11.562,20.1406 7.75,23.9492 C3.941401,27.7578 1.800801,32.9258 1.800801,38.3122 C1.800801,43.6986 3.941401,48.8672 7.75,52.6752 C11.5625,56.4838 16.7266,58.6244 22.117,58.6244 L46.34,58.6244 L46.33609,58.6244 C50.43379,58.61659 54.34779,56.9174 57.14809,53.9252 L50.42539,53.9252 C49.12459,53.99161 47.72229,53.46426 46.84339,52.5697 C45.96448,51.67517 45.56219,50.5658 45.50749,49.4799 C45.45281,48.394 45.74187,47.2494 46.52699,46.269 C47.31211,45.2886 48.65199,44.6245 49.95279,44.5581 L61.14779,44.5581 L61.14779,44.56201 C61.16342,44.3042 61.17904,44.04639 61.18295,43.78857 C61.18295,39.85107 59.62045,36.07377 56.83525,33.29257 C54.05005,30.50737 50.27665,28.94487 46.33925,28.94487 C44.39005,28.94487 42.46425,29.33159 40.66735,30.07767 C39.07355,26.48787 36.47205,23.43707 33.17905,21.29247 C29.88605,19.15187 26.04235,18.00727 22.11705,18.00337 L22.117,18 Z" id="Fill-2"></path>
                <path d="M50.27,47.684 C49.85203,47.68009 49.44578,47.84025 49.1489,48.13322 C48.84812,48.42619 48.68015,48.82853 48.68015,49.24652 C48.68015,49.6684 48.84812,50.06683 49.1489,50.36372 C49.44577,50.65669 49.85202,50.81684 50.27,50.80903 L70.536,50.80903 C70.95397,50.81684 71.36022,50.65669 71.6571,50.36372 C71.95398,50.06684 72.12585,49.66841 72.12585,49.24652 C72.12585,48.82855 71.95397,48.42621 71.6571,48.13322 C71.36022,47.84025 70.95398,47.6801 70.536,47.684 L50.27,47.684 Z" id="Fill-3"></path>
                <path d="M17.453,7.059 C17.03503,7.05119 16.62878,7.21525 16.3319,7.50822 C16.03112,7.80119 15.86315,8.20353 15.86315,8.62152 C15.86315,9.03949 16.03112,9.44183 16.3319,9.73482 C16.62878,10.02779 17.03502,10.19185 17.453,10.18404 L37.719,10.18404 C38.13697,10.19185 38.54322,10.02779 38.8401,9.73482 C39.13698,9.44185 39.30494,9.03951 39.30494,8.62152 C39.30494,8.20355 39.13697,7.80121 38.8401,7.50822 C38.54322,7.21525 38.13698,7.05119 37.719,7.059 L17.453,7.059 Z" id="Fill-4"></path>
                <path d="M48.707,68 C48.28903,67.99219 47.88278,68.15234 47.5859,68.44531 C47.28512,68.74219 47.11715,69.14062 47.11715,69.56251 C47.11715,69.98048 47.28512,70.38282 47.5859,70.67581 C47.88277,70.96878 48.28902,71.12893 48.707,71.12503 L86.164,71.12503 L86.1601,71.12503 C86.58198,71.12894 86.98432,70.96878 87.2851,70.67581 C87.58198,70.38284 87.74994,69.9805 87.74994,69.56251 C87.74994,69.14063 87.58197,68.7422 87.2851,68.44531 C86.98432,68.15234 86.58198,67.99219 86.1601,68 L48.707,68 Z" id="Fill-5"></path>
                <path d="M1.8242,83.625 C1.41014,83.621094 1.00779,83.78516 0.7109,84.07812 C0.41793,84.37109 0.24996,84.76953 0.24996,85.18752 C0.24996,85.60158 0.41793,86.00393 0.7109,86.29692 C1.00777,86.58989 1.41012,86.75395 1.8242,86.75004 L39.2812,86.75004 C39.69917,86.753946 40.09761,86.58988 40.3945,86.29692 C40.69139,86.00396 40.85544,85.60161 40.85544,85.18752 C40.85544,84.76955 40.69138,84.37111 40.3945,84.07812 C40.09762,83.78513 39.69919,83.62109 39.2812,83.625 L1.8242,83.625 Z" id="Fill-6"></path>
                <path d="M1.8242,75.812 C1.41014,75.80809 1.00779,75.97216 0.7109,76.26512 C0.41793,76.55809 0.24996,76.95653 0.24996,77.37452 C0.24996,77.78858 0.41793,78.18702 0.7109,78.48392 C1.00777,78.77689 1.41012,78.93704 1.8242,78.93704 L86.1602,78.93704 C86.57817,78.93704 86.98051,78.77688 87.2735,78.48392 C87.57037,78.18704 87.73834,77.78861 87.73834,77.37452 C87.73834,76.95655 87.57037,76.55811 87.2735,76.26512 C86.98053,75.97215 86.57819,75.80809 86.1602,75.812 L1.8242,75.812 Z" id="Fill-7"></path>
            </g>
        </g>
    </g>
</svg>