<?xml version="1.0" encoding="UTF-8" standalone="no"?>
<svg width="84px" height="92px" viewBox="0 0 84 92" version="1.1" xmlns="http://www.w3.org/2000/svg" xmlns:xlink="http://www.w3.org/1999/xlink">
    <!-- Generator: Sketch 49 (51002) - http://www.bohemiancoding.com/sketch -->
    <title>rain</title>
    <desc>Created with Sketch.</desc>
    <defs></defs>
    <g id="Page-1" stroke="none" stroke-width="1" fill="none" fill-rule="evenodd">
        <g id="icons" transform="translate(-390.000000, -116.000000)" fill="#434343">
            <path d="M432.0005,116.010076 C425.8599,116.010076 419.7195,118.353876 415.0315,123.041276 C411.3518,126.720976 409.1331,131.302976 408.344,136.072276 C398.078,136.919936 390,145.525376 390,156.010276 C390,167.057276 398.9531,176.010276 410,176.010276 L457,176.010276 C466.418,176.010276 474,168.428276 474,159.010276 C474,149.592276 466.418,142.010276 457,142.010276 L455.9062,142.010276 C456.4687,135.221176 454.1601,128.233276 448.9687,123.041276 C444.2812,118.353776 438.1407,116.010076 431.9997,116.010076 L432.0005,116.010076 Z M413.7195,183.229076 C413.07888,183.275956 412.4695,183.631416 412.1257,184.229076 L400.1257,205.010078 C399.57492,205.967108 399.91867,207.178078 400.8757,207.728878 C401.83273,208.279658 403.0437,207.967158 403.5945,207.010128 L415.5945,186.229126 C416.14528,185.272096 415.83278,184.029926 414.87575,183.479126 C414.51637,183.272096 414.10231,183.201786 413.71955,183.229126 L413.7195,183.229076 Z M433.8755,183.229076 C433.23488,183.275956 432.6255,183.631416 432.2817,184.229076 L420.2817,205.010078 C419.73092,205.967108 420.04342,207.178078 421.00045,207.728878 C421.95748,208.279658 423.16845,207.967158 423.71925,207.010128 L435.71925,186.229126 C436.27003,185.272096 435.95753,184.029926 435.0005,183.479126 C434.64112,183.272096 434.25831,183.201786 433.8755,183.229126 L433.8755,183.229076 Z M453.8755,183.229076 C453.23488,183.275956 452.6255,183.631416 452.2817,184.229076 L440.2817,205.010078 C439.73092,205.967108 440.04342,207.178078 441.00045,207.728878 C441.95748,208.279658 443.16845,207.967158 443.71925,207.010128 L455.71925,186.229126 C456.27003,185.272096 455.95753,184.029926 455.0005,183.479126 C454.64112,183.272096 454.25831,183.201786 453.8755,183.229126 L453.8755,183.229076 Z" id="rain"></path>
        </g>
    </g>
</svg>