<?xml version="1.0" encoding="UTF-8" standalone="no"?>
<svg width="100px" height="100px" viewBox="0 0 100 100" version="1.1" xmlns="http://www.w3.org/2000/svg" xmlns:xlink="http://www.w3.org/1999/xlink">
    <!-- Generator: Sketch 49 (51002) - http://www.bohemiancoding.com/sketch -->
    <title>snow</title>
    <desc>Created with Sketch.</desc>
    <defs></defs>
    <g id="Page-1" stroke="none" stroke-width="1" fill="none" fill-rule="evenodd">
        <g id="icons" transform="translate(-539.000000, -108.000000)" fill="#434343">
            <g id="snow" transform="translate(539.000000, 107.000000)">
                <path d="M19.594,53.617 L19.594,53.69903 L82.77,53.69903 C92.2856,53.69903 100,45.98813 100,36.47603 C100,26.96043 92.2852,19.24603 82.77,19.24603 C81.78562,19.24603 80.8286,19.34759 79.8911,19.50775 C76.7153,9.31975 67.5241,1.80075 56.4771,1.07375 L56.4771,1.09328 C55.89898,1.05031 55.3209,0.9995 54.731,0.9995 C53.92631,0.9995 53.1372,1.05031 52.3521,1.12062 C52.15288,1.14015 51.94585,1.15969 51.74663,1.18312 C51.02397,1.26515 50.30523,1.37062 49.60213,1.50734 C49.54744,1.52297 49.48494,1.52688 49.42635,1.53859 C48.69979,1.69093 47.98495,1.87843 47.27795,2.08547 C47.04748,2.15579 46.82092,2.23 46.59436,2.30031 C46.02795,2.4839 45.47326,2.68703 44.93026,2.90578 C44.7076,2.99172 44.48885,3.07766 44.27401,3.1714 C43.71932,3.41359 43.17631,3.67531 42.64511,3.95265 C42.36777,4.09718 42.09042,4.24562 41.82089,4.39796 C41.44198,4.6128 41.0748,4.83546 40.71149,5.06983 C40.28961,5.33546 39.87555,5.6128 39.46929,5.90186 C39.14507,6.13624 38.81695,6.37452 38.49663,6.62452 C38.18804,6.86671 37.88725,7.12061 37.59038,7.37452 C37.36772,7.56593 37.14507,7.77296 36.92632,7.97218 C36.39507,8.46046 35.89112,8.97218 35.39902,9.49948 C35.23105,9.68307 35.06308,9.85495 34.90293,10.03854 C34.61387,10.36667 34.34043,10.71042 34.06699,11.05414 C33.91074,11.24945 33.76621,11.44867 33.61777,11.64789 C33.39511,11.94867 33.19589,12.26898 32.98496,12.57758 C30.59436,16.37838 29.18806,20.85878 29.18416,25.67958 L25.47326,25.68349 C25.47326,20.93739 26.65296,16.47259 28.71156,12.54249 C26.39516,11.65968 23.90686,11.13629 21.28576,11.13629 C9.527758,11.13629 0.004758656,20.66749 0.004758656,32.42129 C0.0008524561,43.60129 8.633658,52.75729 19.59476,53.61629 L19.594,53.617 Z" id="Fill-1"></path>
                <polygon id="Fill-2" points="43.828 69.492 48.578 69.492 48.578 65.9256 43.8202 65.9256 47.1874 62.5584 44.6601 60.035 41.2968 63.3944 41.2968 58.6405 37.7226 58.6405 37.7226 63.3944 34.3632 60.035 31.832 62.5584 35.2031 65.9256 30.4414 65.9256 30.4414 69.492 35.1953 69.492 31.832 72.8592 34.3632 75.3865 37.7226 72.0232 37.7226 76.7771 41.2968 76.7771 41.2968 72.0232 44.6601 75.3865 47.1874 72.8592"></polygon>
                <polygon id="Fill-3" points="16.43 73.113 16.43 69.0661 19.2933 71.9294 21.1644 70.0622 18.305 67.1989 22.348 67.1989 22.348 64.5622 18.2972 64.5622 21.1644 61.6872 19.2972 59.8239 16.43 62.6872 16.43 58.6403 13.7855 58.6403 13.7855 62.6872 10.9261 59.8239 9.058901 61.6872 11.9261 64.5622 7.871401 64.5622 7.871401 67.1989 11.9183 67.1989 9.0589 70.0622 10.9261 71.9294 13.7855 69.0661 13.7855 73.113"></polygon>
                <polygon id="Fill-4" points="69.652 61.688 67.7809 59.8247 64.9176 62.688 64.9176 58.6411 62.2731 58.6411 62.2731 62.688 59.4137 59.8247 57.5426 61.688 60.4137 64.563 56.3551 64.563 56.3551 67.1997 60.402 67.1997 57.5426 70.063 59.4137 71.9302 62.2731 69.0669 62.2731 73.1138 64.9176 73.1138 64.9176 69.0669 67.7809 71.9302 69.652 70.063 66.7887 67.1997 70.8356 67.1997 70.8356 64.563 66.7848 64.563"></polygon>
                <polygon id="Fill-5" points="90.949 61.688 89.0779 59.8247 86.2146 62.688 86.2146 58.6411 83.5701 58.6411 83.5701 62.688 80.7068 59.8247 78.8396 61.688 81.7107 64.563 77.6521 64.563 77.6521 67.1997 81.699 67.1997 78.8396 70.063 80.7068 71.9302 83.5701 69.0708 83.5701 73.1138 86.2146 73.1138 86.2146 69.0669 89.0779 71.9302 90.949 70.063 88.0857 67.1997 92.1287 67.1997 92.1287 64.563 88.0779 64.563"></polygon>
                <polygon id="Fill-6" points="62.234 81.355 59.7067 78.8316 56.3434 82.191 56.3434 77.4371 52.7692 77.4371 52.7692 82.1949 49.4059 78.8316 46.8786 81.355 50.2458 84.7222 45.488 84.7222 45.488 88.2964 50.2419 88.2964 46.8786 91.655803 49.4059 94.187003 52.7692 90.8198 52.7692 95.573703 56.3434 95.573703 56.3434 90.8198 59.7067 94.187003 62.234 91.655803 58.8785 88.2964 63.6246 88.2964 63.6246 84.7222 58.8707 84.7222"></polygon>
                <polygon id="Fill-7" points="84.527 80.488 82.6559 78.6208 79.7926 81.4841 79.7926 77.4372 77.1481 77.4372 77.1481 81.4841 74.2887 78.6208 72.4176 80.488 75.2887 83.3591 71.2301 83.3591 71.2301 85.9958 75.2809 85.9958 72.4176 88.8591 74.2887 90.7263 77.1481 87.8669 77.1481 91.913799 79.7926 91.913799 79.7926 87.863 82.6559 90.7263 84.527 88.8591 81.6676 85.9958 85.7106 85.9958 85.7106 83.3591 81.6598 83.3591"></polygon>
                <polygon id="Fill-8" points="35.418 83.562 32.2227 80.3628 28.1915 84.3901 28.1915 78.6909 23.6759 78.6909 23.6759 84.3901 19.6447 80.3628 16.4455 83.562 20.4846 87.5932 14.7776 87.5932 14.7776 92.104897 20.4768 92.104897 16.4456 96.136096 19.6448 99.331397 23.676 95.300197 23.676 100.999397 28.1916 100.999397 28.1916 95.300197 32.2228 99.331397 35.4181 96.136096 31.3947 92.104897 37.0822 92.104897 37.0822 87.5932 31.383 87.5932"></polygon>
            </g>
        </g>
    </g>
</svg>