<?xml version="1.0" encoding="UTF-8" standalone="no"?>
<svg width="100px" height="98px" viewBox="0 0 100 98" version="1.1" xmlns="http://www.w3.org/2000/svg" xmlns:xlink="http://www.w3.org/1999/xlink">
    <!-- Generator: Sketch 49 (51002) - http://www.bohemiancoding.com/sketch -->
    <title>thunderstorm</title>
    <desc>Created with Sketch.</desc>
    <defs></defs>
    <g id="Page-1" stroke="none" stroke-width="1" fill="none" fill-rule="evenodd">
        <g id="icons" transform="translate(-51.000000, -109.000000)" fill="#434343">
            <g id="thunderstorm" transform="translate(51.000000, 109.000000)">
                <polygon id="Fill-1" points="55.1952 56 42.4102 56 34 69.438 48.273 69.438 38.085 97.738999 66.487 61.891 51.639 61.84803"></polygon>
                <path d="M19.5891728,52.61766 L19.5891728,52.7036 L82.7651728,52.7036 C92.2846728,52.7036 99.9951728,44.9888 99.9951728,35.4766 C99.9951728,25.961 92.2803728,18.2466 82.7651728,18.2466 C81.7847028,18.2466 80.8237728,18.34816 79.8862728,18.50832 C76.7104728,8.32032 67.5192728,0.80132 56.4762728,0.07032 L56.4762728,0.08985 C55.8942428,0.05079 55.3160728,0 54.7223728,0 C53.9215928,0 53.1285728,0.05079 52.3512728,0.12109 C52.1481528,0.14063 51.9450228,0.16016 51.7418928,0.18359 C51.0192328,0.26563 50.3043928,0.37109 49.5973928,0.50781 C49.5388028,0.51953 49.4763028,0.52735 49.4216128,0.53906 C48.6911428,0.6914 47.9802128,0.8789 47.2732128,1.08595 C47.0427428,1.15626 46.8161828,1.23048 46.5857128,1.30078 C46.0193028,1.48437 45.4646128,1.6875 44.9177128,1.90625 C44.6989628,1.99219 44.4802128,2.07814 44.2614628,2.17187 C43.7067728,2.41406 43.1637628,2.67578 42.6286628,2.95312 C42.3513228,3.09765 42.0739728,3.24609 41.8044428,3.40234 C41.4294428,3.61718 41.0583528,3.83984 40.6950428,4.07423 C40.2770728,4.33984 39.8630128,4.6172 39.4567428,4.90625 C39.1286128,5.14064 38.8004928,5.37892 38.4840828,5.62892 C38.1715828,5.87111 37.8747028,6.125 37.5778328,6.37892 C37.3512728,6.57033 37.1325228,6.77345 36.9137728,6.97658 C36.3864328,7.46486 35.8746728,7.97658 35.3864728,8.50388 C35.2185028,8.68747 35.0544428,8.85935 34.8903828,9.04294 C34.6052228,9.37105 34.3278828,9.71482 34.0544428,10.05853 C33.9021028,10.25384 33.7536628,10.45306 33.6052228,10.65228 C33.3786628,10.95697 33.1794428,11.27728 32.9646028,11.58978 C30.5779028,15.39059 29.1755028,19.86708 29.1677028,24.68778 L25.4646028,24.68778 C25.4685028,19.94168 26.6482028,15.47298 28.7068028,11.54278 C26.3904028,10.65997 23.9060028,10.13658 21.2810028,10.13658 C9.52300081,10.13658 1.32509118e-06,19.66778 1.32509118e-06,31.42158 C-0.00390487521,42.60158 8.62890081,51.75358 19.5900028,52.61658 L19.5891728,52.61766 Z" id="Fill-2"></path>
            </g>
        </g>
    </g>
</svg>