<?xml version="1.0" encoding="UTF-8" standalone="no"?>
<svg width="83px" height="93px" viewBox="0 0 83 93" version="1.1" xmlns="http://www.w3.org/2000/svg" xmlns:xlink="http://www.w3.org/1999/xlink">
    <!-- Generator: Sketch 49 (51002) - http://www.bohemiancoding.com/sketch -->
    <title>windy</title>
    <desc>Created with Sketch.</desc>
    <defs></defs>
    <g id="Page-1" stroke="none" stroke-width="1" fill="none" fill-rule="evenodd">
        <g id="icons" transform="translate(-386.000000, -347.000000)" fill="#434343">
            <g id="windy" transform="translate(386.000000, 347.000000)">
                <path d="M63.5045904,47.2629172 C65.3277176,45.8917465 67.492312,45.1695974 69.7631274,45.1695974 C70.2385111,45.1695974 70.7185146,45.2015863 71.1892548,45.2655758 C74.7754867,45.7500429 77.7616108,47.7884176 79.5661877,50.5993235 C81.6847017,48.5426259 83,45.7225937 83,42.6101684 C83,36.3257627 77.6507816,31.2159609 71.0829156,31.2159609 C70.8475277,31.2159609 70.6075319,31.2250989 70.3721441,31.2388118 L67.8429243,31.3850669 L68.8213871,29.0632381 C69.0198516,28.5879091 69.1721648,28.103442 69.3060105,27.6143767 C69.3429338,27.4726964 69.384477,27.3264414 69.4167805,27.1801863 C69.449084,27.0202183 69.4813993,26.8602503 69.509083,26.6957192 C69.5460063,26.5083255 69.5737018,26.3209435 69.5967774,26.1289749 C69.615245,26.0009958 69.6337007,25.8730285 69.6429404,25.7450611 C69.6706241,25.420562 69.6936997,25.0869132 69.6936997,24.7578393 C69.6936997,18.3180522 64.1505895,13.0848111 57.3335351,13.0848111 C55.1965889,13.0848111 53.087291,13.6104167 51.2319075,14.6068 L50.5072883,14.9952886 L49.4688147,15.5528832 L48.9426599,13.6333144 C46.7410832,5.60753714 39.3656296,0 31.0020482,0 C20.7465735,0 12.4068594,8.30916116 12.4068594,18.5240846 C12.4068594,20.4208376 12.6976263,22.299338 13.2653242,24.1000307 L13.8007069,25.7956537 L12.0376022,26.1155896 C5.06375657,27.3861368 0,33.195272 0,39.9279203 C0,47.6885664 6.66002675,54 14.8473213,54 L26.8423879,54 C25.166954,53.1681713 24.1100601,51.3628452 24.3777987,49.4203436 C24.7424123,46.7694994 26.1316873,44.4248548 28.2778495,42.8069225 C30.0501702,41.472374 32.1594682,40.7684775 34.3701428,40.7684775 C34.8316788,40.7684775 35.2978464,40.8004782 35.7547979,40.8598928 C42.0363751,41.7099976 46.4487448,47.4641877 45.5994487,53.6893893 C45.5856128,53.7899309 45.5579173,53.8904959 45.5440696,53.9956123 L59.5146829,53.9956123 C59.8931443,51.3081458 61.3100438,48.9178696 63.5024045,47.2633151 L63.5045904,47.2629172 Z" id="Fill-1"></path>
                <path d="M34.7726816,50.0084809 C34.7207402,50 34.6687988,50 34.6168575,50 C34.0644078,50 33.5969475,50.377523 33.5213987,50.8780456 C33.3089189,52.2650621 32.3220571,53.4061228 31,54 L36.4348054,54 C36.7086671,53.5758268 36.8975393,53.1049818 36.9778145,52.5959349 C37.1619604,51.3404206 36.1798249,50.1823113 34.7727541,50.0084591 L34.7726816,50.0084809 Z" id="Fill-2"></path>
                <path d="M35.5476463,43.0694066 C35.21483,43.0231355 34.8820253,43 34.549209,43 C32.9808313,43 31.4627565,43.5182693 30.190711,44.4992493 C28.6543124,45.6838648 27.6603919,47.4098495 27.3960389,49.3534481 C27.2683791,50.3020645 27.9203331,51.1720698 28.8503888,51.3015482 C28.9324491,51.3108001 29.0099576,51.3200519 29.0874545,51.3200519 C29.9308864,51.3200519 30.6511637,50.690725 30.7697432,49.8254226 C31.0296145,47.8819425 32.6617637,46.4613516 34.5492323,46.4613516 C34.7270316,46.4613516 34.9048425,46.4752353 35.0826418,46.4983708 C37.9320519,46.8916987 39.9334316,49.566288 39.5459473,52.4584082 C39.0718042,55.9520761 36.1357354,58.5526624 32.6480266,58.5526624 C32.6115541,58.5526624 32.5659663,58.5526624 32.5294938,58.5480305 L19.7004958,58.5480305 C18.7567732,58.5480305 18,59.3254344 18,60.2740153 C18,61.2272635 18.7613599,62 19.7004958,62 L32.50265,62 L32.6804493,62 C37.8367914,62 42.2180483,58.1268997 42.9200718,52.9209886 C43.5628989,48.1455668 40.2576346,43.7263588 35.5480664,43.0692645 L35.5476463,43.0694066 Z" id="Fill-3"></path>
                <path d="M71.114406,48.0750999 C70.7607571,48.0281655 70.4071202,48 70.0534832,48 C68.3876837,48 66.7822788,48.5444685 65.4375126,49.5770985 C63.808879,50.8256798 62.7572716,52.6421368 62.4826958,54.6838936 C62.3430969,55.6789616 63.0364217,56.5990018 64.0229409,56.7303366 C64.1113532,56.7444193 64.1951077,56.7491176 64.2788623,56.7491176 C65.1722759,56.7491176 65.9307246,56.0826027 66.0563981,55.1767053 C66.3355958,53.1302623 68.0665789,51.63295 70.0628224,51.63295 C70.2489502,51.63295 70.4397357,51.6470207 70.6258636,51.6751862 C73.6410752,52.0929341 75.7629922,54.9044831 75.3488056,57.9507765 C74.8509121,61.630673 71.7379849,64.3623878 68.0479482,64.3623878 L67.9223104,64.3623878 L44.8007646,64.3623878 C43.8049776,64.3623878 43,65.1744043 43,66.1788448 C43,67.1833093 43.8050015,67.9953017 44.8007646,67.9953017 L67.8853827,67.9953017 C67.9505185,68 68.0063628,68 68.0715105,68 C73.5296724,68 78.1736367,63.9211727 78.9135023,58.4435642 C79.6021694,53.411869 76.1029421,48.7603597 71.1147157,48.0750879 L71.114406,48.0750999 Z" id="Fill-4"></path>
                <path d="M49.7641284,73.0043507 L5.82267643,73.0043507 C4.81723085,73.0043507 4,73.8197436 4,74.8184068 C4,75.82162 4.81720734,76.6370363 5.82267643,76.6370363 L49.7958619,76.6416216 L49.9244177,76.6416216 C53.6569789,76.6416216 56.8064669,79.3763677 57.3067979,83.0502152 C57.7245867,86.0919752 55.5804972,88.9091623 52.5320862,89.3214851 C52.3392642,89.3489733 52.151026,89.3627174 51.958204,89.3627174 C49.9380749,89.3627174 48.1889731,87.8648224 47.9134796,85.8217372 C47.7895192,84.914721 47.0182196,84.2458574 46.109138,84.2458574 C46.0265017,84.2458574 45.9438654,84.2550162 45.8566336,84.2641751 C44.8603672,84.4016043 44.1625365,85.3177794 44.3002833,86.3118338 C44.580337,88.3549189 45.640846,90.1735485 47.2891059,91.4195466 C48.6480036,92.450248 50.2733448,93 51.9489895,93 C52.3025004,93 52.6652022,92.9770971 53.018713,92.9221324 C58.0597509,92.2349982 61.599443,87.5853905 60.9154105,82.5556624 C60.1670648,77.0769059 55.4704173,73 49.9519671,73 C49.8922847,73.0045735 49.8280067,73.0045735 49.7637288,73.0045735 L49.7641284,73.0043507 Z" id="Fill-5"></path>
            </g>
        </g>
    </g>
</svg>